<svg width="190" height="102" viewBox="0 0 190 102" fill="none" xmlns="http://www.w3.org/2000/svg">
<path d="M101.026 17.4317C101.112 17.8634 101.165 18.2952 101.283 18.7161C101.465 19.4069 100.768 19.6336 100.597 20.1625C100.275 19.8926 99.9965 19.6444 99.707 19.4177C99.4925 19.2558 99.5783 19.1047 99.6534 18.9212C99.8785 18.3492 100.254 17.8742 100.651 17.4209C100.779 17.4317 100.908 17.4317 101.026 17.4317Z" fill="#104437"/>
<path d="M16.5127 50.8057C16.5556 50.8057 16.5985 50.8057 16.6414 50.8057C16.8558 51.0431 16.8451 51.3453 16.8451 51.6476C16.8451 58.7606 16.8451 65.8736 16.8451 72.9866C16.8451 73.278 16.8558 73.5803 16.6414 73.8285C16.5985 73.8285 16.5556 73.8285 16.5127 73.8285C16.5127 66.1542 16.5127 58.48 16.5127 50.8057Z" fill="#104437"/>
<path d="M16.6416 73.8177C16.6416 66.1434 16.6416 58.4799 16.6416 50.8056C18.2178 50.8056 19.7832 50.838 21.3594 50.784C22.0457 50.7624 22.5496 51.0107 23.0214 51.4532C25.3267 53.612 27.6427 55.7707 29.9588 57.9186C31.9102 59.7212 33.8724 61.5237 35.8239 63.3154C36.553 63.9739 37.2928 64.6215 38.022 65.2799C38.1399 65.3878 38.2257 65.6037 38.4187 65.5066C38.601 65.4202 38.5152 65.2043 38.5152 65.0424C38.5152 61.7935 38.5152 58.5554 38.5152 55.3066C38.5152 53.9789 38.5259 52.6513 38.5045 51.3237C38.4937 50.9135 38.6331 50.7732 39.0406 50.784C40.6918 50.8056 42.3538 50.8056 44.005 50.784C44.4125 50.784 44.5519 50.892 44.5519 51.3237C44.5411 58.631 44.5411 65.9491 44.5519 73.2564C44.5519 73.7097 44.391 73.8285 43.9729 73.8177C42.6111 73.7961 41.2494 73.8069 39.8877 73.8069C39.6518 73.8069 39.448 73.7853 39.255 73.6126C38.2471 72.6735 37.2285 71.7345 36.2099 70.7954C33.8081 68.5827 31.3956 66.3808 28.9937 64.1681C27.7607 63.0348 26.5705 61.8583 25.316 60.7466C24.4582 59.991 23.6969 59.1275 22.7426 58.4475C22.6032 58.6958 22.6676 58.9224 22.6676 59.1491C22.6676 63.8012 22.6568 68.464 22.6783 73.1161C22.6783 73.6773 22.5174 73.8285 21.9706 73.8177C20.2014 73.7961 18.4215 73.8177 16.6416 73.8177Z" fill="#104437"/>
<path d="M161.082 50.8057C164.985 50.8057 168.877 50.8165 172.78 50.7949C173.327 50.7949 173.509 50.9352 173.488 51.4965C173.445 52.4895 173.445 53.4825 173.488 54.4648C173.52 55.0692 173.349 55.2419 172.727 55.2419C167.001 55.2203 161.286 55.2203 155.56 55.2311C154.316 55.2311 154.488 55.0692 154.477 56.2889C154.467 57.2171 154.52 58.1454 154.467 59.0737C154.434 59.6889 154.66 59.7968 155.217 59.7968C159.785 59.7752 164.353 59.7968 168.92 59.7644C169.574 59.7644 169.746 59.9479 169.714 60.574C169.66 61.5994 169.671 62.6356 169.714 63.6718C169.735 64.2006 169.553 64.341 169.038 64.341C164.449 64.3194 159.86 64.341 155.271 64.3194C154.638 64.3194 154.434 64.4705 154.467 65.1181C154.52 66.2514 154.509 67.3956 154.467 68.5289C154.445 69.101 154.606 69.2737 155.196 69.2737C160.996 69.2521 166.808 69.2629 172.609 69.2629C173.467 69.2629 173.467 69.2629 173.467 70.1048C173.467 71.0762 173.467 72.0476 173.467 73.0083C173.467 73.807 173.467 73.8178 172.63 73.8178C166.326 73.8178 160.01 73.8178 153.705 73.8178C152.193 73.8178 150.682 73.807 149.18 73.8286C148.741 73.8394 148.548 73.7422 148.548 73.2457C148.559 65.9492 148.559 58.6635 148.548 51.367C148.548 50.8489 148.762 50.7949 149.191 50.7949C153.158 50.8165 157.126 50.8057 161.082 50.8057Z" fill="#104437"/>
<path d="M68.5801 58.0373C68.5801 60.1637 68.5694 62.29 68.5909 64.4164C68.6016 65.4742 68.934 66.4348 69.5666 67.2875C70.3493 68.3345 71.3894 69.0145 72.6332 69.3383C75.2602 70.0183 77.8657 70.0291 80.439 69.0361C82.2511 68.3345 83.4735 66.478 83.57 64.5567C83.7951 60.1853 83.6129 55.8031 83.6665 51.4316C83.6772 50.9675 83.7844 50.8056 84.2669 50.8164C85.9182 50.8488 87.5801 50.838 89.2314 50.8164C89.6817 50.8056 89.8533 50.9135 89.8533 51.41C89.8318 55.7275 89.9498 60.045 89.8104 64.3624C89.7032 67.9135 88.0519 70.6443 84.8352 72.3173C82.991 73.2672 81.0395 73.7853 78.9808 74.0011C75.5818 74.3573 72.2365 74.2494 68.9876 73.1053C66.0175 72.0583 63.7658 70.2234 62.7686 67.0932C62.447 66.0894 62.2968 65.0532 62.2968 64.0062C62.2861 59.8615 62.3076 55.7059 62.2754 51.5612C62.2754 50.9675 62.4362 50.8164 63.0152 50.8272C64.6665 50.8596 66.3284 50.8596 67.9797 50.8272C68.4515 50.8164 68.5909 50.9567 68.5909 51.4316C68.5694 53.6119 68.5801 55.8246 68.5801 58.0373Z" fill="#104437"/>
<path d="M103.406 50.8058C105.326 50.8058 107.245 50.8705 109.164 50.7842C110.236 50.7302 110.987 51.0648 111.727 51.8527C113.689 53.9791 115.758 56.0083 117.764 58.1023C118.182 58.534 118.396 58.6096 118.868 58.1238C121.077 55.7924 123.35 53.515 125.58 51.2159C125.859 50.9245 126.148 50.795 126.567 50.795C128.743 50.8165 130.92 50.8058 133.118 50.8058C133.129 51.108 132.882 51.2159 132.732 51.3562C129.322 54.7454 125.923 58.1454 122.492 61.5131C122.085 61.9124 122.128 62.1067 122.503 62.4845C126.073 66.0464 129.622 69.6299 133.182 73.2026C133.343 73.3645 133.536 73.494 133.708 73.6235C133.515 73.9042 133.332 73.8178 133.182 73.8178C131.049 73.8286 128.904 73.8178 126.77 73.8286C126.406 73.8286 126.138 73.7423 125.891 73.4616C123.789 71.1626 121.57 68.9931 119.393 66.7804C119.115 66.4997 118.857 66.1975 118.621 65.8737C118.267 65.3988 117.999 65.4959 117.646 65.8953C115.962 67.7734 114.129 69.5004 112.402 71.3353C111.727 72.0477 111.051 72.7708 110.365 73.4832C110.172 73.6883 109.968 73.8286 109.657 73.8286C107.416 73.8178 105.175 73.8178 102.902 73.8178C102.913 73.5372 103.138 73.4184 103.278 73.2673C106.827 69.6838 110.376 66.1111 113.957 62.5492C114.354 62.1607 114.354 61.9556 113.957 61.5562C110.58 58.1886 107.223 54.7994 103.857 51.421C103.696 51.2591 103.492 51.1404 103.31 51C103.331 50.9461 103.374 50.8813 103.406 50.8058Z" fill="#104437"/>
<path d="M93.1349 32.5968C93.5745 33.3848 94.0892 34.0432 94.8076 34.4965C95.4509 34.9067 96.6411 34.3562 96.7483 33.5899C96.8126 33.1257 97.3059 32.8991 97.4667 32.4349C97.4882 32.7587 97.4989 33.0718 97.5525 33.3848C97.5632 33.4927 97.6168 33.6438 97.7669 33.6546C97.917 33.6654 98.0028 33.5359 97.9921 33.4064C97.9707 33.0286 98.2816 32.7803 98.3138 32.4133C98.3459 32.0356 98.614 32.0464 98.807 32.3378C99.0643 32.7156 99.6541 33.0286 98.8284 33.5467C98.3567 33.8489 98.0779 34.4749 97.5418 34.7879C97.2737 34.9498 97.2094 35.2737 97.2523 35.5759C97.4131 36.774 97.0378 37.7778 96.2658 38.706C95.8047 39.2565 95.3759 39.8825 95.3651 40.6705C95.3544 41.3613 95.5474 41.6635 96.1908 41.5232C97.3488 41.2641 98.0028 41.6959 98.5926 42.6565C99.1501 43.5632 100.212 43.6387 101.166 43.6819C105.584 43.8762 110.001 43.7575 114.419 43.833C121.914 43.9518 129.419 43.833 136.914 43.9841C142.801 44.1029 148.687 43.9194 154.563 44.1029C160.514 44.2864 166.454 44.1245 172.405 44.2108C172.77 44.2108 173.392 44.2108 173.37 44.5022C173.349 44.9448 172.791 44.6965 172.48 44.6965C148.816 44.7073 125.152 44.7073 101.488 44.7073C100.544 44.7073 99.6219 44.5778 98.807 43.9949C98.3674 43.6819 98.1208 43.2718 97.8849 42.8292C97.5632 42.2464 97.2201 41.8254 96.4052 42.0305C95.8047 42.1816 95.0971 42.1168 94.754 41.4476C94.4323 40.8108 94.561 40.174 94.9791 39.6127C95.4295 39.0083 95.8905 38.4146 96.3623 37.8318C96.7805 37.3245 96.877 36.8064 96.5124 36.1479C96.373 36.461 96.2122 36.6984 96.1479 36.9683C95.9549 37.767 95.4938 38.3714 94.9148 38.9003C93.9283 39.7854 93.3064 40.8216 93.0598 42.16C92.7918 43.6064 91.6123 44.4591 90.0897 44.6102C88.8138 44.7397 87.5378 44.7181 86.2726 44.7289C63.3375 44.7289 40.4131 44.7289 17.478 44.7181C17.1992 44.7181 16.6738 44.9772 16.6738 44.4591C16.6738 44.0381 17.1885 44.2432 17.4566 44.2324C21.3166 44.2216 25.1767 44.2972 29.026 44.2C35.9419 44.0273 42.8471 44.2324 49.763 44.0597C55.8962 43.9086 62.0401 44.1245 68.1733 43.941C74.0813 43.7683 79.9893 43.9625 85.8866 43.8006C87.3555 43.7575 88.8567 43.8978 90.3042 43.4445C90.969 43.2394 91.4193 42.8292 91.623 42.1384C91.7195 41.793 91.9018 41.4692 91.9447 41.1238C92.1055 39.7854 92.9848 38.9435 93.9391 38.1772C94.9255 37.3784 95.1185 36.9251 94.829 35.6838C94.7218 35.2089 94.4108 35.0362 93.9927 34.9822C93.7675 34.9499 93.5316 34.9822 93.3064 34.9391C92.8668 34.8419 92.5344 34.7016 92.9204 34.1403C93.1027 33.8813 93.1778 33.5251 93.0277 33.1689C92.9633 33.0286 92.9204 32.8343 93.1349 32.5968Z" fill="#104437"/>
<path d="M122.696 84.5683C121.87 84.5899 121.066 84.4819 120.337 84.0826C120.133 83.9746 119.822 83.8775 120.004 83.5321C120.154 83.2623 120.369 83.1975 120.68 83.3594C121.57 83.8343 122.524 83.9315 123.521 83.8019C123.811 83.7588 124.036 83.64 124.229 83.4349C124.594 83.0464 124.497 82.6254 123.993 82.4635C123.618 82.3448 123.232 82.2584 122.824 82.28C122.181 82.3124 121.538 82.1937 120.916 82.0534C120.39 81.9346 120.069 81.6324 120.026 81.0603C119.983 80.4559 120.272 80.0349 120.809 79.8191C122.031 79.3226 123.253 79.4197 124.454 79.9054C124.636 79.981 124.98 80.0242 124.862 80.348C124.744 80.661 124.476 80.7905 124.154 80.6178C123.478 80.2616 122.749 80.24 122.02 80.2616C121.913 80.2616 121.806 80.2508 121.709 80.2832C121.388 80.3911 120.937 80.4127 120.937 80.8769C120.937 81.3626 121.377 81.3194 121.709 81.4165C122.363 81.6 123.039 81.4705 123.693 81.6216C125.033 81.9346 125.387 82.2369 125.312 83.1867C125.258 83.8991 124.39 84.5143 123.393 84.5575C123.157 84.5791 122.921 84.5683 122.696 84.5683Z" fill="#104437"/>
<path d="M79.989 33.0825C79.3135 33.1581 79.3671 32.7911 79.4207 32.4781C79.603 31.3664 80.3214 30.6216 81.147 29.9524C81.1899 29.9092 81.2542 29.8876 81.3078 29.8552C81.5115 29.7257 81.7581 29.4235 81.9297 29.5422C82.1013 29.661 82.1656 30.0279 82.1441 30.2762C82.0798 31.5498 81.2864 32.6832 80.0747 33.0718C79.9997 33.0933 79.9139 33.0933 79.989 33.0825Z" fill="#104437"/>
<path d="M95.3753 33.0826C95.3539 33.4604 95.4397 33.8381 95.0966 33.9461C94.7642 34.0432 94.5283 33.741 94.3246 33.5035C93.574 32.6184 93.3488 31.5823 93.4775 30.4489C93.4989 30.233 93.5525 29.9956 93.7563 29.92C93.9707 29.8445 94.1315 30.0496 94.2817 30.1899C95.1823 30.9886 95.2252 32.1003 95.3753 33.0826Z" fill="#104437"/>
<path d="M110.837 26.7898C111.887 26.8006 113.131 27.6533 113.367 28.5276C113.432 28.7542 113.507 28.9593 113.153 28.9377C112.059 28.8622 110.998 28.6787 110.108 27.9879C109.872 27.8044 109.464 27.5453 109.593 27.2755C109.711 27.0272 110.15 26.9301 110.461 26.8006C110.569 26.7466 110.708 26.7898 110.837 26.7898Z" fill="#104437"/>
<path d="M83.6029 24.1237C82.9703 24.1776 82.3913 24.005 81.8337 23.7675C81.5228 23.638 81.4584 23.4653 81.7908 23.2386C83.0346 22.3643 84.4178 22.2456 85.6937 23.1199C85.8117 23.2062 85.9832 23.271 85.9832 23.4329C85.9832 23.6056 85.801 23.6488 85.6723 23.6919C84.9968 23.9078 84.332 24.1992 83.6029 24.1237Z" fill="#104437"/>
<path d="M90.9682 33.9891C90.9468 32.9529 91.1719 32.0786 91.5901 31.2367C91.6866 31.0424 91.8045 30.8481 92.0404 30.8481C92.3192 30.8481 92.3299 31.0964 92.3943 31.2907C92.8017 32.3916 92.7803 33.4494 92.0619 34.4208C91.9547 34.572 91.8153 34.7123 91.6652 34.8202C91.515 34.9281 91.3435 35.0469 91.1505 34.9497C90.9467 34.8418 90.9682 34.6367 90.9682 34.4532C90.9682 34.2697 90.9682 34.0754 90.9682 33.9891Z" fill="#104437"/>
<path d="M92.7275 19.6553C92.7919 20.0223 92.6954 20.4324 92.5774 20.8318C92.363 21.5981 91.6982 21.9004 91.0012 21.5658C90.9369 21.5334 90.8833 21.4578 90.8618 21.3823C90.6152 20.7131 91.1942 19.0077 91.8269 18.5867C91.9984 18.468 92.17 18.2089 92.4273 18.3708C92.6632 18.5112 92.7275 18.7594 92.7275 19.0293C92.7275 19.2127 92.7275 19.407 92.7275 19.6553Z" fill="#104437"/>
<path d="M101.229 21.5979C100.629 21.6087 100.554 21.5008 100.768 20.9935C101.208 19.9357 101.851 19.0614 102.956 18.6189C103.117 18.5541 103.31 18.403 103.47 18.5325C103.631 18.6621 103.449 18.8348 103.428 18.9967C103.32 20.1084 102.902 21.0043 101.809 21.4684C101.605 21.544 101.422 21.6195 101.229 21.5979Z" fill="#104437"/>
<path d="M109.958 31.1289C110.033 31.7442 109.776 32.2731 109.422 32.7911C109.229 33.0826 109.036 33.115 108.864 32.7911C108.253 31.6686 108.114 30.5029 108.628 29.3048C108.757 28.9918 108.886 28.9162 109.154 29.1969C109.679 29.7365 110.022 30.3302 109.958 31.1289Z" fill="#104437"/>
<path d="M80.6219 27.1459C80.0429 27.2538 79.4854 27.0811 78.9814 26.7573C78.842 26.671 78.6812 26.5738 78.6919 26.3795C78.7134 26.2068 78.8742 26.1529 79.0029 26.0989C80.1609 25.6779 81.3403 25.5376 82.5412 25.9154C83.0881 26.0881 83.0988 26.2284 82.6485 26.6062C82.0695 27.0811 81.3832 27.2322 80.6219 27.1459Z" fill="#104437"/>
<path d="M91.2693 23.3683C90.4758 23.4222 89.8003 23.174 89.1891 22.7638C89.039 22.6667 88.846 22.5479 88.8889 22.3213C88.9211 22.1162 89.1248 22.1162 89.2856 22.073C90.4758 21.7492 91.6231 21.8679 92.7382 22.3752C92.9527 22.4724 93.2207 22.6343 93.1885 22.9149C93.1564 23.174 92.8562 23.1092 92.6632 23.1632C92.1914 23.3035 91.7303 23.4222 91.2693 23.3683Z" fill="#104437"/>
<path d="M87.3981 23.1201C86.1972 23.1093 85.2107 22.4077 84.8354 21.2744C84.7389 20.9829 84.7389 20.7994 85.1357 20.8318C86.2722 20.929 87.323 21.1556 87.8699 22.3321C88.2023 23.0445 88.1594 23.1201 87.3981 23.1201Z" fill="#104437"/>
<path d="M89.0812 31.3448C89.0919 32.7048 88.4379 33.7518 87.3871 34.1512C87.1619 34.2375 86.9367 34.3131 86.9689 33.9569C87.0654 32.8128 87.3335 31.7226 88.2127 30.8915C88.3735 30.7404 88.4915 30.4489 88.7488 30.5029C89.0705 30.5677 88.9204 30.9347 89.049 31.1397C89.0812 31.2153 89.0705 31.3124 89.0812 31.3448Z" fill="#104437"/>
<path d="M99.4391 29.5313C98.1631 28.7866 97.3053 27.7828 97.0158 26.3364C96.9408 25.9586 97.1231 25.9155 97.4447 26.0342C98.7207 26.4983 99.8358 27.5993 99.4391 29.5313Z" fill="#104437"/>
<path d="M89.8213 31.0425C89.9178 29.5746 89.9285 28.1714 91.2795 27.254C91.6441 27.0057 91.7299 27.0813 91.7299 27.4914C91.7299 28.2902 91.7406 29.0673 91.3653 29.8228C91.0329 30.4489 90.5397 30.7943 89.8213 31.0425Z" fill="#104437"/>
<path d="M101.659 26.3581C101.723 26.1314 101.498 25.6996 101.788 25.6133C102.034 25.5377 102.335 25.8508 102.538 26.0882C103.192 26.8654 103.997 27.5562 103.814 28.7542C103.761 29.0996 103.718 29.186 103.375 29.0349C102.109 28.4952 101.659 27.8152 101.659 26.3581Z" fill="#104437"/>
<path d="M96.1262 31.7116C96.0082 30.8049 96.3299 29.9414 97.1234 29.2506C97.4236 28.9916 97.563 29.0456 97.6917 29.4125C98.024 30.4379 97.445 32.3376 96.5765 32.9636C96.4693 33.0392 96.3728 33.1256 96.2441 33.0608C96.1047 32.9852 96.1369 32.8449 96.1262 32.7262C96.1262 32.424 96.1262 32.1325 96.1262 31.7116Z" fill="#104437"/>
<path d="M110.151 26.304C109.744 26.4227 109.583 25.937 109.304 25.6671C109.133 25.4944 109.283 25.3433 109.422 25.257C110.312 24.6202 111.266 24.3395 112.36 24.6202C112.896 24.7605 112.811 24.9763 112.521 25.3002C111.921 25.9478 111.159 26.2176 110.151 26.304Z" fill="#104437"/>
<path d="M84.932 27.5992C84.9534 28.8405 84.2458 29.6716 83.3665 30.4056C83.2808 30.4811 83.1199 30.5351 83.0234 30.5135C82.8411 30.4596 82.9055 30.2653 82.9162 30.125C83.0234 28.9484 83.3237 27.8583 84.2458 27.038C84.3959 26.9084 84.5031 26.6386 84.7497 26.7357C84.9856 26.8329 84.9213 27.0919 84.932 27.297C84.932 27.3942 84.932 27.4913 84.932 27.5992Z" fill="#104437"/>
<path d="M96.1264 24.2317C96.0727 24.7606 95.8905 25.2787 95.7082 25.786C95.6224 26.0126 95.4187 26.0882 95.29 25.8399C94.7325 24.7714 94.2607 23.6704 94.6145 22.4184C94.7217 22.0298 94.9469 22.019 95.215 22.2672C95.794 22.7961 96.0942 23.4437 96.1264 24.2317Z" fill="#104437"/>
<path d="M80.3214 29.0564C80.5465 29.1319 80.9647 28.8837 81.0719 29.1859C81.1577 29.4449 80.7503 29.6284 80.5573 29.8443C79.796 30.6754 78.8524 31.0856 77.7158 31.0856C77.3513 31.0856 77.169 31.0316 77.4585 30.643C78.1769 29.704 79.0025 28.9808 80.3214 29.0564Z" fill="#104437"/>
<path d="M88.2879 26.7574C88.1485 26.7034 87.7411 26.9624 87.6231 26.6278C87.5266 26.358 87.8269 26.1097 88.0199 25.8939C88.7275 25.1275 89.5746 24.5878 90.6039 24.3612C90.8077 24.318 91.0543 24.264 90.9149 24.5662C90.5825 25.2786 90.2072 25.991 89.596 26.5091C89.2744 26.7897 88.8348 26.8329 88.2879 26.7574Z" fill="#104437"/>
<path d="M105.1 21.7922C105.99 22.0405 106.816 22.4722 107.373 23.3357C107.609 23.7135 107.502 23.9833 107.234 24.2855C106.955 24.5986 106.687 24.4367 106.451 24.2963C105.572 23.8106 104.929 23.1414 104.746 22.1052C104.682 21.7598 104.704 21.7382 105.1 21.7922Z" fill="#104437"/>
<path d="M93.0273 27.3511C92.8986 26.5308 92.8021 25.7968 92.9522 25.0089C93.0809 24.3721 93.4347 23.9079 93.7778 23.4222C93.9708 23.1524 94.1317 23.2711 94.2175 23.5302C94.7214 25.0737 94.3461 26.3041 93.0273 27.3511Z" fill="#104437"/>
<path d="M104.672 24.1994C104.672 24.2857 104.683 24.3721 104.672 24.4477C104.608 24.7715 104.608 25.2248 104.254 25.2896C103.922 25.3543 103.825 24.9226 103.686 24.6527C103.246 23.7892 102.882 22.9042 102.914 21.9111C102.914 21.7708 102.86 21.5981 103.021 21.5118C103.214 21.4146 103.321 21.5765 103.45 21.6845C104.233 22.3537 104.651 23.1848 104.672 24.1994Z" fill="#104437"/>
<path d="M105.133 30.5352C105.294 31.3015 105.337 32.0571 105.723 32.7155C105.916 33.0393 105.787 33.3739 105.562 33.6437C105.433 33.8056 105.283 33.9675 105.122 34.0971C104.886 34.2806 104.736 34.7447 104.425 34.6152C104.157 34.5072 104.2 34.0431 104.189 33.7517C104.168 32.9421 103.964 32.0786 104.683 31.3879C104.897 31.1936 104.972 30.8482 105.133 30.5352Z" fill="#104437"/>
<path d="M108.435 26.7897C107.341 26.6062 106.237 26.4443 105.476 25.5052C105.336 25.3325 105.122 25.1274 105.229 24.9008C105.358 24.6201 105.594 24.89 105.776 24.89C106.709 24.8792 107.524 25.2138 108.274 25.7427C108.467 25.883 108.639 26.0233 108.746 26.2284C108.821 26.3687 109.014 26.4767 108.896 26.6709C108.789 26.8544 108.596 26.7573 108.435 26.7897Z" fill="#104437"/>
<path d="M98.1528 22.1701C98.0992 23.3682 97.6167 24.3181 96.7374 25.0844C96.6624 25.1492 96.5873 25.2571 96.4694 25.1923C96.3514 25.1276 96.3943 25.0196 96.4158 24.9117C96.5444 24.4368 96.523 23.9727 96.3943 23.487C96.2871 23.0768 96.3514 22.699 96.7267 22.4184C96.9733 22.2349 97.2092 22.019 97.4451 21.8247C97.6167 21.6736 97.7989 21.4362 98.0241 21.5441C98.26 21.6736 98.067 21.9866 98.1528 22.1701Z" fill="#104437"/>
<path d="M84.889 29.9739C85.8004 31.0856 86.0685 32.3161 85.9291 33.6653C85.8969 34.0107 85.7253 33.9459 85.5109 33.7624C84.2886 32.737 84.0527 31.4526 84.889 29.9739Z" fill="#104437"/>
<path d="M89.0382 21.4684C87.8266 21.4684 86.8723 20.6697 86.6685 19.5796C86.5935 19.2234 86.7114 19.191 87.0009 19.191C87.8909 19.1694 89.2848 20.2596 89.4992 21.1231C89.6172 21.6951 89.1668 21.3713 89.0382 21.4684Z" fill="#104437"/>
<path d="M112.092 30.6432C112.06 30.8051 112.178 31.0425 111.985 31.1505C111.77 31.2692 111.599 31.0857 111.427 30.9778C110.998 30.7079 110.623 30.3841 110.366 29.9308C110.151 29.5314 109.808 29.2616 109.454 29.0025C109.326 28.9054 109.165 28.7759 109.24 28.5816C109.315 28.3657 109.519 28.4413 109.679 28.4413C110.988 28.3981 112.103 29.4019 112.092 30.6432Z" fill="#104437"/>
<path d="M94.2393 27.7073C94.2393 28.8623 93.0062 30.2115 92.0305 30.2007C91.6873 30.2007 91.5587 30.1143 91.741 29.7689C92.2127 28.8623 92.8025 28.0635 93.5959 27.4267C93.7353 27.308 93.8962 27.0705 94.132 27.2216C94.325 27.3511 94.1857 27.5778 94.2393 27.7073Z" fill="#104437"/>
<path d="M87.6872 30.2329C87.773 30.7833 87.4513 31.1503 87.0974 31.4849C86.9152 31.6468 87.0438 32.0678 86.7758 32.0246C86.4755 31.9814 86.4112 31.5929 86.3254 31.323C86.0252 30.4056 86.1324 29.5421 86.7007 28.7541C86.9152 28.4519 87.1189 28.3656 87.3119 28.8081C87.5263 29.2507 87.7515 29.704 87.6872 30.2329Z" fill="#104437"/>
<path d="M102.945 21.0259C103.964 20.1193 105.122 20.1517 106.269 20.2272C106.494 20.238 106.827 20.3244 106.859 20.605C106.891 20.8424 106.58 20.8748 106.409 20.972C105.905 21.231 105.433 21.5656 104.822 21.4793C104.672 21.4577 104.532 21.5332 104.446 21.6628C104.339 21.8247 104.211 21.8571 104.093 21.7059C103.825 21.339 103.374 21.2526 102.945 21.0259Z" fill="#104437"/>
<path d="M80.4818 28.5277C79.8278 28.5816 79.238 28.5492 78.6483 28.7651C78.2301 28.9162 77.0507 27.7073 77.1472 27.2864C77.233 26.9194 77.5868 26.9086 77.8549 26.941C78.9485 27.0489 79.8063 27.567 80.4818 28.5277Z" fill="#104437"/>
<path d="M87.5053 25.3543C86.6904 25.3867 86.09 25.5918 85.5217 25.9048C84.8998 26.2502 84.4816 25.7969 84.0741 25.4623C83.8061 25.2356 83.3021 24.9982 83.4308 24.642C83.5488 24.3182 84.0742 24.5232 84.4173 24.5124C85.4895 24.4585 86.476 24.6636 87.5053 25.3543Z" fill="#104437"/>
<path d="M108.071 33.3307C108.039 33.471 108.146 33.6869 107.985 33.784C107.803 33.892 107.685 33.6761 107.556 33.6005C106.656 33.0393 106.034 32.2621 105.744 31.2151C105.701 31.0748 105.637 30.9237 105.744 30.7942C105.862 30.6431 106.012 30.7618 106.141 30.7942C107.235 31.1072 108.06 32.1758 108.071 33.3307Z" fill="#104437"/>
<path d="M100.276 21.598C100.276 21.9973 100.308 22.3104 100.04 22.4075C99.7828 22.4938 99.5791 22.2564 99.429 22.0621C98.8822 21.3497 98.3675 20.6157 98.271 19.6767C98.2495 19.504 98.2067 19.2665 98.4104 19.1694C98.5819 19.0831 98.7321 19.2234 98.8607 19.3097C99.6971 19.9034 100.255 20.6697 100.276 21.598Z" fill="#104437"/>
<path d="M103.814 25.8938C105.037 25.9586 105.927 26.5738 106.538 27.6208C106.602 27.7179 106.699 27.8475 106.613 27.9662C106.516 28.0849 106.388 27.9878 106.27 27.9662C105.455 27.7935 104.651 27.5668 103.954 27.0595C103.739 26.9084 103.589 26.7249 103.45 26.509C103.353 26.3687 103.246 26.2284 103.321 26.0449C103.418 25.8182 103.643 25.9262 103.814 25.8938Z" fill="#104437"/>
<path d="M100.651 32.9852C100.629 33.1795 100.715 33.417 100.511 33.5141C100.318 33.6005 100.232 33.3738 100.114 33.2875C99.1601 32.5643 98.506 31.6252 98.1951 30.4487C98.1629 30.3084 98.0986 30.1573 98.2165 30.0386C98.3559 29.8982 98.5275 29.9738 98.6776 30.0494C99.1923 30.2976 99.7391 30.4379 99.6855 31.2583C99.6533 31.6576 99.664 32.3052 100.425 32.3592C100.629 32.3484 100.64 32.7478 100.651 32.9852Z" fill="#104437"/>
<path d="M87.0439 26.3797C86.808 27.3943 86.2612 28.4305 85.3927 29.2832C85.3176 29.3587 85.2211 29.4343 85.1246 29.3479C85.0388 29.2724 85.0817 29.1536 85.1139 29.0565C85.3283 28.4197 85.4355 27.772 85.3069 27.1028C85.2425 26.7682 85.4141 26.52 85.6714 26.3689C85.9931 26.1746 86.3469 26.0451 86.6793 25.8832C87.0332 25.7213 87.0868 25.9155 87.0439 26.3797Z" fill="#104437"/>
<path d="M100.147 30.7943C100.104 29.7365 100.736 29.1212 101.39 28.5276C101.508 28.4197 101.669 28.3981 101.787 28.5168C101.937 28.6679 102.066 28.8514 102.012 29.0781C101.83 29.7797 101.691 30.5136 101.197 31.0857C100.994 31.3232 100.801 31.7009 100.404 31.5606C99.9858 31.4095 100.222 31.0101 100.147 30.7943Z" fill="#104437"/>
<path d="M83.9137 30.5137C83.6671 31.1937 83.7207 31.7334 83.7851 32.2946C83.8601 32.8775 82.7235 33.8273 82.1445 33.7302C81.7907 33.6654 81.8872 33.3632 81.9194 33.1797C82.0695 32.1759 82.6378 31.4203 83.4419 30.8267C83.5384 30.7511 83.6457 30.6864 83.9137 30.5137Z" fill="#104437"/>
<path d="M94.0464 22.1916C93.4459 21.1339 93.2529 20.0653 93.3602 18.932C93.3923 18.5974 93.5961 18.5002 93.8856 18.6513C94.411 18.9212 94.7219 19.3853 95.0007 19.8926C95.0329 19.9466 95.0329 20.0761 94.99 20.1193C94.486 20.6913 94.3359 21.4361 94.0464 22.1916Z" fill="#104437"/>
<path d="M109.079 81.9885C109.079 81.3624 109.079 80.7256 109.079 80.0996C109.079 79.8513 109.09 79.6463 109.422 79.6355C109.776 79.6247 109.83 79.8082 109.83 80.1104C109.819 81.4164 109.819 82.7117 109.83 84.0177C109.83 84.2875 109.765 84.4494 109.444 84.4494C109.122 84.4494 109.058 84.2767 109.068 84.0069C109.09 83.3377 109.079 82.6685 109.079 81.9885Z" fill="#104437"/>
<path d="M80.7072 24.2533C81.8545 24.2425 82.6479 24.7282 83.3127 25.4838C83.3877 25.5701 83.5379 25.6565 83.4414 25.7968C83.3556 25.9263 83.2269 25.8723 83.0982 25.8184C82.8516 25.7104 82.5943 25.6133 82.3477 25.5054C81.5971 25.1708 80.8358 25.0628 80.0424 25.3435C79.8279 25.419 79.6457 25.4082 79.4419 25.3111C79.2596 25.2247 79.1203 25.0952 79.0988 24.8901C79.0666 24.6635 79.2918 24.6419 79.4205 24.5663C79.8601 24.3181 80.3212 24.1993 80.7072 24.2533Z" fill="#104437"/>
<path d="M101.155 26.315C101.102 26.8223 101.048 27.4591 100.641 28.0096C100.469 28.247 100.33 28.3658 100.19 27.9988C100.019 27.5562 99.8471 27.1029 99.6648 26.6604C99.4397 26.1315 99.7613 25.6997 99.89 25.2356C99.9222 25.1385 99.9651 25.1169 100.062 25.1169C100.662 25.1061 101.155 25.5918 101.155 26.315Z" fill="#104437"/>
<path d="M95.6649 29.499C95.4612 27.4482 95.7721 26.1638 96.6085 25.6133C96.6299 26.2501 96.6299 26.833 96.9623 27.4158C97.2625 27.9231 96.512 29.0133 95.6649 29.499Z" fill="#104437"/>
<path d="M109.957 23.0983C109.818 23.8215 109.464 24.5015 108.864 25.0196C108.564 25.2786 107.888 24.9116 107.813 24.5231C107.652 23.7243 109.121 22.6126 109.689 22.6234C109.979 22.6234 109.947 22.8392 109.957 23.0983Z" fill="#104437"/>
<path d="M90.2608 21.4362C89.9392 21.2635 89.9499 20.9505 89.8641 20.713C89.7676 20.4755 89.7247 20.1841 89.4996 20.0762C88.8026 19.7092 89.0492 19.2343 89.3066 18.7378C89.4674 18.4247 89.5961 17.9606 89.9713 18.0038C90.3573 18.047 90.3466 18.5543 90.4431 18.8781C90.7005 19.7416 90.5825 20.5835 90.2608 21.4362Z" fill="#104437"/>
<path d="M102.495 30.7834C102.806 31.4095 102.978 32.0355 103.31 32.5968C103.578 33.0393 102.72 34.4101 102.227 34.4425C102.12 34.4533 102.056 34.3993 102.056 34.313C102.088 33.1365 101.863 31.9384 102.409 30.8158C102.409 30.7942 102.442 30.7942 102.495 30.7834Z" fill="#104437"/>
<path d="M92.9307 44.6965C94.2066 43.4876 95.7506 43.4876 97.5734 44.6965C95.9973 44.6965 94.4961 44.6965 92.9307 44.6965Z" fill="#104437"/>
<path d="M99.4396 24.6527C99.4289 24.9009 99.3324 25.1168 99.2787 25.3435C99.2144 25.6565 99.3645 26.1746 98.8713 26.1638C98.2923 26.1422 97.9277 25.6457 98.0242 25.0844C98.1315 24.4476 98.2601 23.8108 98.6354 23.2603C98.8606 22.9365 99.0321 22.9689 99.1394 23.3251C99.2573 23.7568 99.3431 24.1993 99.4396 24.6527Z" fill="#104437"/>
<path d="M96.2442 29.7148C96.1048 30.1249 95.9976 30.4703 95.869 30.7941C95.676 31.2583 95.4508 31.3014 95.172 30.9021C94.8611 30.4595 94.5823 29.9846 94.4429 29.4449C94.2177 28.6354 94.7967 28.0202 94.9683 27.297C94.979 27.2646 95.0755 27.2214 95.1184 27.2214C95.2471 27.243 95.2471 27.3725 95.2471 27.4697C95.2471 27.9986 95.2471 28.5167 95.2471 29.0456C95.2471 29.9738 95.3007 30.017 96.2442 29.7148Z" fill="#104437"/>
<path d="M88.7389 23.4978C88.9855 23.4978 89.1249 23.4978 89.275 23.4978C89.5538 23.4978 89.9076 23.5086 89.9827 23.7784C90.0578 24.0375 89.6503 24.0159 89.5109 24.1778C88.8354 24.9333 88.042 25.0737 87.1627 24.5879C87.0019 24.5016 86.7767 24.4368 86.766 24.221C86.7553 24.0267 86.9804 23.9727 87.1091 23.8971C87.6345 23.5949 88.2135 23.433 88.7389 23.4978Z" fill="#104437"/>
<path d="M89.2101 34.367C88.8992 34.3886 88.7813 34.2482 88.867 33.946C89.1565 32.9422 89.757 32.1435 90.529 31.4743C90.5826 31.4311 90.6898 31.3771 90.7434 31.3987C90.8614 31.4419 90.8399 31.5714 90.7971 31.6686C90.5397 32.2082 90.6148 32.8235 90.4432 33.3847C90.2609 33.9676 89.7999 34.3454 89.2101 34.367Z" fill="#104437"/>
<path d="M107.031 30.4381C106.463 30.3086 105.884 30.1899 105.401 29.8445C104.962 29.5423 105.058 28.981 104.876 28.5492C104.822 28.4305 105.058 28.4089 105.165 28.4413C106.088 28.7004 106.945 29.0458 107.321 30.0496C107.46 30.4165 107.331 30.4705 107.031 30.4381Z" fill="#104437"/>
<path d="M90.6686 26.8223C90.2719 27.4375 89.843 27.9448 89.6179 28.5924C89.4677 29.0134 88.492 29.2616 88.1382 29.0134C87.9988 28.9162 88.031 28.8191 88.0738 28.6896C88.3097 27.9016 89.6822 26.8762 90.6686 26.8223Z" fill="#104437"/>
<path d="M96.1257 22.3968C95.8791 22.0082 95.7183 21.6736 95.418 21.4685C94.9141 21.1231 95.032 20.7777 95.3644 20.4C95.536 20.2165 95.7075 20.033 95.8898 19.8603C96.0185 19.7307 96.1364 19.5257 96.3509 19.6012C96.5975 19.6984 96.6297 19.9466 96.6189 20.1841C96.5868 20.918 96.4903 21.6304 96.1257 22.3968Z" fill="#104437"/>
<path d="M83.9566 26.6062C83.4097 27.1459 83.0559 27.8043 82.6163 28.4195C82.3911 28.7325 81.4475 28.7757 81.1795 28.4951C80.9865 28.2792 81.2009 28.1929 81.2974 28.0957C82.0158 27.3186 82.9165 26.8545 83.9566 26.6062Z" fill="#104437"/>
<path d="M104.457 29.0889C104.843 30.0063 104.629 30.9454 104.007 31.5822C103.643 31.9492 103.471 31.7873 103.353 31.4095C103.192 30.8914 103.106 30.3517 103.214 29.8012C104.082 30.0171 104.082 30.0171 104.457 29.0889Z" fill="#104437"/>
<path d="M92.9197 23.7351C92.5766 24.3719 92.523 25.0735 92.3622 25.7319C92.2764 26.0989 91.5044 26.5199 91.1612 26.3903C91.0326 26.3472 91.0004 26.2716 91.0433 26.1529C91.365 25.1167 91.944 24.2748 92.9197 23.7351Z" fill="#104437"/>
<path d="M107.062 28.7975C107.877 28.6356 107.877 28.5708 107.095 27.1353C107.459 27.1245 107.781 27.2864 108.124 27.3188C108.521 27.3512 108.564 27.7721 108.531 28.0527C108.467 28.56 108.328 29.0673 108.103 29.5531C107.942 29.8985 107.813 29.7797 107.674 29.607C107.459 29.348 107.277 29.0781 107.062 28.7975Z" fill="#104437"/>
<path d="M100.062 23.7352C100.008 23.3898 100.18 23.3466 100.394 23.3898C101.112 23.5625 101.691 23.9295 102.035 24.6203C102.163 24.8793 102.142 25.0088 101.82 25.0088C101.338 25.0196 100.866 24.9225 100.415 24.7606C99.8472 24.5771 100.383 23.9726 100.062 23.7352Z" fill="#104437"/>
<path d="M106.505 21.857C107.009 21.5764 107.566 21.5656 108.124 21.6088C108.371 21.6304 108.489 21.7599 108.328 22.0405C107.856 22.8285 107.663 22.8824 106.955 22.2888C106.805 22.1701 106.558 22.1269 106.505 21.857Z" fill="#104437"/>
<path d="M102.666 24.0806C102.27 23.8324 101.948 23.6057 101.616 23.4114C101.326 23.2387 101.251 22.9797 101.283 22.6667C101.305 22.5048 101.401 22.3537 101.562 22.4076C101.862 22.5048 102.259 22.5048 102.377 22.8825C102.506 23.2603 102.57 23.6381 102.666 24.0806Z" fill="#104437"/>
<path d="M98.1849 82.4526C98.9033 82.0532 99.1499 81.5135 98.9998 80.8119C98.8604 80.1427 98.3136 79.6786 97.5415 79.657C96.3728 79.6246 95.2041 79.6462 94.0246 79.6462C93.7995 79.6462 93.6064 79.6678 93.6064 79.97C93.6064 81.3624 93.6064 82.744 93.6064 84.1364C93.6064 84.3954 93.7566 84.4494 93.971 84.4494C94.1747 84.4494 94.3463 84.4062 94.357 84.1472C94.357 83.996 94.357 83.8557 94.357 83.7046C94.3677 82.5281 94.2176 82.7656 95.3971 82.6576C96.4586 82.5605 97.1877 82.8519 97.6488 83.8449C97.8739 84.3414 98.2921 84.6005 98.9569 84.3846C98.6352 83.8989 98.335 83.4456 98.0348 82.9922C97.8847 82.7548 97.9061 82.6037 98.1849 82.4526ZM97.3914 81.9129C96.9518 81.9237 96.5122 81.9129 96.0726 81.9129C95.826 81.9129 95.5686 81.9129 95.322 81.9129C94.3677 81.9129 94.1533 81.6214 94.3677 80.6716C94.4213 80.4126 94.5822 80.4018 94.7752 80.4018C95.6544 80.4018 96.5336 80.391 97.4022 80.4018C97.8739 80.4126 98.1313 80.6932 98.1313 81.1681C98.1313 81.643 97.8525 81.8913 97.3914 81.9129Z" fill="#104437"/>
<path d="M70.0814 81.0603C70.0278 80.3047 69.3738 79.6571 68.591 79.6463C67.4437 79.6247 66.2964 79.6463 65.1492 79.6355C64.7953 79.6355 64.6666 79.765 64.6774 80.1104C64.6988 80.758 64.6774 81.4165 64.6774 82.0641C64.6774 82.6901 64.6774 83.3269 64.6774 83.953C64.6774 84.2336 64.6988 84.4495 65.0634 84.4387C65.4494 84.4387 65.4387 84.1904 65.4279 83.9314C65.4279 83.7263 65.4494 83.5104 65.4279 83.3053C65.3636 82.8088 65.5459 82.6577 66.0498 82.6577C66.9827 82.6577 67.9262 82.798 68.8591 82.5606C69.674 82.3555 70.1458 81.7942 70.0814 81.0603ZM68.4624 81.9022C68.012 81.9453 67.551 81.913 67.0899 81.913C66.8647 81.913 66.6288 81.913 66.4037 81.913C65.4387 81.913 65.2457 81.6539 65.4387 80.6825C65.503 80.3803 65.696 80.4019 65.8997 80.4019C66.7361 80.4019 67.5724 80.4019 68.398 80.4019C68.8698 80.4019 69.1486 80.6177 69.2022 81.0926C69.2665 81.6215 68.9127 81.8482 68.4624 81.9022Z" fill="#104437"/>
<path d="M84.6642 83.9205C83.9887 82.6253 83.3239 81.3085 82.6055 80.0348C82.2409 79.3872 81.5011 79.4735 81.158 80.1427C80.9864 80.4773 80.7934 80.8012 80.6219 81.1358C80.0643 82.2043 79.496 83.2837 78.9277 84.3739C79.5067 84.5573 79.8713 84.4278 80.0536 83.8773C80.1715 83.5212 80.4181 83.4132 80.7827 83.424C81.5333 83.4456 82.2838 83.4456 83.0451 83.424C83.4097 83.4132 83.6563 83.5104 83.7742 83.8666C83.9458 84.417 84.3211 84.5573 84.8358 84.3846C84.8572 84.2012 84.7392 84.0608 84.6642 83.9205ZM81.1258 82.6685C80.7934 82.6685 80.7827 82.5173 80.9114 82.2691C81.2116 81.6539 81.5225 81.0386 81.9622 80.4018C82.3696 81.1789 82.7449 81.8805 83.1523 82.6577C82.4125 82.6685 81.7692 82.6685 81.1258 82.6685Z" fill="#104437"/>
</svg>
